<?xml version="1.0" encoding="utf-8"?>
<!-- Generator: Adobe Illustrator 19.1.0, SVG Export Plug-In . SVG Version: 6.00 Build 0)  -->
<svg version="1.1" id="图层_1" xmlns="http://www.w3.org/2000/svg" xmlns:xlink="http://www.w3.org/1999/xlink" x="0px" y="0px"
	 viewBox="-459 261 40 40" style="enable-background:new -459 261 40 40;" xml:space="preserve">
<path d="M-427.3,274.8l-5.1-5.2c-0.5-0.5-1.1-0.8-1.8-0.8c-0.6,0-1.3,0.2-1.8,0.7l-14.6,14.2c-0.5,0.5-0.8,1.1-0.8,1.8
	c0,0.7,0.2,1.3,0.7,1.8l5.1,5.2c0.5,0.5,1.1,0.8,1.8,0.8c0.6,0,1.3-0.2,1.9-0.7l14.6-14.2C-426.3,277.3-426.3,275.8-427.3,274.8z
	 M-443.4,291.2c-0.1,0.1-0.3,0.2-0.5,0.2s-0.4-0.1-0.5-0.2l-5.1-5.2c-0.1-0.1-0.2-0.3-0.2-0.5s0.1-0.4,0.2-0.5l6.7-6.5l6.1,6.2
	L-443.4,291.2z M-428.8,277l-6.6,6.5l-6.1-6.2l6.6-6.4c0.1-0.1,0.3-0.2,0.5-0.2s0.4,0.1,0.5,0.2l5.1,5.2
	C-428.5,276.2-428.5,276.7-428.8,277z"/>
</svg>
