<?xml version="1.0" encoding="utf-8"?>
<!-- Generator: Adobe Illustrator 19.1.0, SVG Export Plug-In . SVG Version: 6.00 Build 0)  -->
<svg class="size-active" version="1.1" id="图层_1" xmlns="http://www.w3.org/2000/svg" xmlns:xlink="http://www.w3.org/1999/xlink" x="0px" y="0px"
	 viewBox="-459 261 40 40" style="enable-background:new -459 261 40 40;" xml:space="preserve">
<g>
	<g>
		<path d="M-439,289.8c-4.8,0-8.8-3.9-8.8-8.8c0-4.8,3.9-8.8,8.8-8.8c4.8,0,8.8,3.9,8.8,8.8C-430.2,285.8-434.2,289.8-439,289.8z
			 M-439,273.8c-4,0-7.2,3.3-7.2,7.2c0,4,3.3,7.2,7.2,7.2c4,0,7.2-3.3,7.2-7.2C-431.8,277-435,273.8-439,273.8z"/>
	</g>
	<g>
		<path class="line" d="M-445.4,280.2c-0.2,0-0.4-0.1-0.5-0.2c-0.3-0.3-0.3-0.8,0-1.1l5.2-5.2c0.3-0.3,0.8-0.3,1.1,0s0.3,0.8,0,1.1l-5.2,5.2
			C-445,280.2-445.2,280.2-445.4,280.2z"/>
	</g>
	<g>
		<path class="line" d="M-445.4,282.4c-0.2,0-0.4-0.1-0.5-0.2c-0.3-0.3-0.3-0.8,0-1.1l7.1-7.1c0.3-0.3,0.8-0.3,1.1,0s0.3,0.8,0,1.1l-7.1,7.1
			C-445,282.3-445.2,282.4-445.4,282.4z"/>
	</g>
	<g>
		<path class="line" d="M-445,284.3c-0.2,0-0.4-0.1-0.5-0.2c-0.3-0.3-0.3-0.8,0-1.1l8.2-8.2c0.3-0.3,0.8-0.3,1.1,0s0.3,0.8,0,1.1l-8.2,8.2
			C-444.6,284.3-444.8,284.3-445,284.3z"/>
	</g>
	<g>
		<path class="line" d="M-443.8,285.7c-0.2,0-0.4-0.1-0.5-0.2c-0.3-0.3-0.3-0.8,0-1.1l8.7-8.7c0.3-0.3,0.8-0.3,1.1,0s0.3,0.8,0,1.1l-8.7,8.7
			C-443.4,285.6-443.6,285.7-443.8,285.7z"/>
	</g>
	<g>
		<path class="line" d="M-442.5,287c-0.2,0-0.4-0.1-0.5-0.2c-0.3-0.3-0.3-0.8,0-1.1l9.2-9.2c0.3-0.3,0.8-0.3,1.1,0s0.3,0.8,0,1.1l-9.2,9.2
			C-442.1,287-442.3,287-442.5,287z"/>
	</g>
	<g>
		<path class="line" d="M-440.9,287.8c-0.2,0-0.4-0.1-0.5-0.2c-0.3-0.3-0.3-0.8,0-1.1l7.9-7.9c0.3-0.3,0.8-0.3,1.1,0s0.3,0.8,0,1.1l-7.9,7.9
			C-440.5,287.8-440.7,287.8-440.9,287.8z"/>
	</g>
	<g>
		<path class="line" d="M-438.6,288.2c-0.2,0-0.4-0.1-0.5-0.2c-0.3-0.3-0.3-0.8,0-1.1l5.8-5.9c0.3-0.3,0.8-0.3,1.1,0c0.3,0.3,0.3,0.8,0,1.1
			l-5.8,5.9C-438.2,288.1-438.4,288.2-438.6,288.2z"/>
	</g>
	<g>
		<path class="line" d="M-435.7,287.2c-0.2,0-0.4-0.1-0.5-0.2c-0.3-0.3-0.3-0.8,0-1.1l2.2-2.1c0.3-0.3,0.8-0.3,1.1,0c0.3,0.3,0.3,0.8,0,1.1
			l-2.2,2.1C-435.3,287.2-435.5,287.2-435.7,287.2z"/>
	</g>
</g>
</svg>
