<?xml version="1.0" encoding="utf-8"?>
<!-- Generator: Adobe Illustrator 19.1.0, SVG Export Plug-In . SVG Version: 6.00 Build 0)  -->
<svg version="1.1" id="图层_1" xmlns="http://www.w3.org/2000/svg" xmlns:xlink="http://www.w3.org/1999/xlink" x="0px" y="0px"
	 viewBox="-459 261 40 40" style="enable-background:new -459 261 40 40;" xml:space="preserve">

<g>
	<g>
		<g>
			<path d="M-439,288.2c-4,0-7.2-3.2-7.2-7.2s3.2-7.2,7.2-7.2s7.2,3.2,7.2,7.2S-435,288.2-439,288.2z M-439,275.4
				c-3,0-5.6,2.6-5.6,5.6s2.6,5.6,5.6,5.6s5.6-2.6,5.6-5.6C-433.4,277.9-435.9,275.4-439,275.4z"/>
		</g>
		<g>
			<g>
				<!-- top -->
				<path id="o-t" d="M-439,270.6c-0.5,0-0.8-0.3-0.8-0.8v-1.6c0-0.5,0.3-0.8,0.8-0.8s0.8,0.3,0.8,0.8v1.6
					C-438.2,270.3-438.5,270.6-439,270.6z"/>
			</g>
			<g>

				<!-- bottom -->
				<path id="o-b" d="M-439,294.6c-0.5,0-0.8-0.3-0.8-0.8v-1.6c0-0.5,0.3-0.8,0.8-0.8s0.8,0.3,0.8,0.8v1.6
					C-438.2,294.3-438.5,294.6-439,294.6z"/>
			</g>
		</g>
		<g>
			<g>
				<!-- right -->
				<path id="o-r" d="M-426.2,281.8h-1.6c-0.5,0-0.8-0.3-0.8-0.8s0.3-0.8,0.8-0.8h1.6c0.5,0,0.8,0.3,0.8,0.8
					C-425.4,281.5-425.7,281.8-426.2,281.8z"/>
			</g>
			<g>
				<!-- left -->
				<path id="o-l" d="M-450.2,281.8h-1.6c-0.5,0-0.8-0.3-0.8-0.8s0.3-0.8,0.8-0.8h1.6c0.5,0,0.8,0.3,0.8,0.8
					C-449.4,281.5-449.7,281.8-450.2,281.8z"/>
			</g>
		</g>
		<g>
			<g>
				<!-- top right -->
				<path id="o-tr" d="M-431,273.8c-0.2,0-0.5,0-0.6-0.2c-0.3-0.3-0.3-0.8,0-1.1l1.1-1.1c0.3-0.3,0.8-0.3,1.1,0s0.3,0.8,0,1.1
					l-1.1,1.1C-430.6,273.8-430.8,273.8-431,273.8z"/>
			</g>
			<g>
				<!-- bottom left -->
				<path id="o-bl" d="M-448.1,290.9c-0.2,0-0.5,0-0.6-0.2c-0.3-0.3-0.3-0.8,0-1.1l1.1-1.1c0.3-0.3,0.8-0.3,1.1,0s0.3,0.8,0,1.1
					l-1,1C-447.6,290.7-447.8,290.9-448.1,290.9z"/>
			</g>
		</g>
		<g>
			<g>
				<!-- bottom right -->
				<path id="o-br" d="M-429.8,290.9c-0.2,0-0.5,0-0.6-0.2l-1.1-1.1c-0.3-0.3-0.3-0.8,0-1.1s0.8-0.3,1.1,0l1.1,1.1
					c0.3,0.3,0.3,0.8,0,1.1C-429.5,290.7-429.7,290.9-429.8,290.9z"/>
			</g>
			<g>
				<!-- top left -->
				<path id="o-tl" d="M-447,273.8c-0.2,0-0.5,0-0.6-0.2l-1-1.1c-0.3-0.3-0.3-0.8,0-1.1s0.8-0.3,1.1,0l1.1,1.1
					c0.3,0.3,0.3,0.8,0,1.1C-446.5,273.8-446.6,273.8-447,273.8z"/>
			</g>
		</g>
	</g>
</g>
</svg>
