<?xml version="1.0" encoding="utf-8"?>
<!-- Generator: Adobe Illustrator 19.1.0, SVG Export Plug-In . SVG Version: 6.00 Build 0)  -->
<svg version="1.1" id="图层_1" xmlns="http://www.w3.org/2000/svg" xmlns:xlink="http://www.w3.org/1999/xlink" x="0px" y="0px"
	 viewBox="-459 261 40 40" style="enable-background:new -459 261 40 40;" xml:space="preserve">
<g>
	<path class="st0" d="M-435.6,281.5c0.3,0,0.7,0.2,0.9,0.6c0.2,0.3,0.3,0.8,0.3,1.2c0,0.6-0.1,0.9-0.3,1.2c-0.2,0.3-0.6,0.6-0.9,0.6
		c-0.3,0-0.7-0.2-0.9-0.6c-0.2-0.3-0.3-0.8-0.3-1.2c0-0.6,0.1-0.9,0.3-1.2C-436.3,281.7-436.1,281.5-435.6,281.5z"/>
	<g>
		<path class="st0" d="M-445.3,274.6c0.9,0.3,1.9,0.9,3.1,1.7c0.2,0.1,0.4,0.2,0.7,0.2c0.1,0,0.2,0,0.2,0c0.6-0.1,1.3-0.2,2.2-0.2
			c1.2,0,1.9,0.1,2.2,0.2c0.1,0,0.2,0,0.3,0c0.2,0,0.4-0.1,0.7-0.2c0.8-0.6,1.6-1,2.2-1.2c0.4-0.2,0.8-0.3,1-0.4
			c0.1,0.4,0.2,1,0.2,1.6c0.1,0.7,0.1,0.9,0.1,1s0,0.1-0.1,0.2c-0.1,0.3,0,0.7,0.2,1c0.8,0.9,1.2,1.9,1.2,3.1c0,0.9-0.1,1.7-0.3,2.3
			c-0.2,0.7-0.4,1.2-0.7,1.6c-0.2,0.4-0.6,0.8-1,1c-0.4,0.3-0.8,0.6-1.1,0.7c-0.3,0.1-0.8,0.2-1.2,0.3c-0.4,0.1-0.9,0.1-1.1,0.1
			h-0.9h-0.8c-0.3,0-0.7,0-1,0c-0.3,0-0.6,0-1,0h-0.7h-0.9c-0.2,0-0.7-0.1-1.1-0.1c-0.4-0.1-0.9-0.2-1.2-0.3
			c-0.3-0.1-0.8-0.3-1.1-0.7c-0.4-0.3-0.8-0.7-1-1c-0.2-0.3-0.6-0.9-0.7-1.6c-0.2-0.7-0.3-1.5-0.3-2.3c0-1.2,0.3-2.2,1.2-3.1
			c0.2-0.2,0.3-0.6,0.2-1c0-0.1,0-0.1-0.1-0.2c0-0.1,0-0.4,0.1-1.1C-445.5,275.6-445.4,275-445.3,274.6 M-445.9,273.2
			c-0.3,0.9-0.6,1.8-0.7,2.8c-0.1,1-0.1,1.6,0,1.6c-1,1.1-1.5,2.3-1.5,3.9c0,1,0.1,1.9,0.3,2.7c0.2,0.8,0.6,1.5,0.9,1.9
			c0.3,0.4,0.8,0.9,1.2,1.3c0.6,0.3,1,0.7,1.3,0.8c0.4,0.2,0.9,0.3,1.5,0.4s1,0.1,1.2,0.1h0.9h0.7c0.4,0,0.8,0,1,0c0.2,0,0.6,0,1,0
			h0.7h0.9c0.3,0,0.7-0.1,1.2-0.1c0.6-0.1,1-0.2,1.5-0.4c0.4-0.2,0.9-0.4,1.3-0.8c0.6-0.3,0.9-0.8,1.2-1.3c0.3-0.4,0.7-1.1,0.9-1.9
			c0.2-0.8,0.3-1.7,0.3-2.7c0-1.6-0.4-2.8-1.5-3.9c0.1,0,0.1-0.6,0-1.6c-0.1-1-0.3-1.9-0.7-2.8l-0.6,0.1c-0.3,0-0.9,0.2-1.7,0.6
			c-0.8,0.3-1.6,0.8-2.3,1.3c-0.6-0.1-1.5-0.2-2.6-0.2s-1.9,0.1-2.5,0.2C-443.2,274.1-444.7,273.5-445.9,273.2L-445.9,273.2z"/>
	</g>
	<g>
		<path class="st0" d="M-442.2,281.1L-442.2,281.1c0.4,0,1,0,1.7,0.1c0.7,0,1.2,0.1,1.8,0.1c0.4,0,1.2,0,2.1-0.1
			c0.4,0,0.9-0.1,1.2-0.1c0.4,0,0.7,0,0.8,0c0.2,0,0.6,0.1,0.8,0.3c0.4,0.4,0.7,0.9,0.7,1.6c0,1.6-0.6,2-1,2.2
			c-1,0.4-2.5,0.7-4.6,0.7h-0.1c-2,0-3.6-0.2-4.5-0.7c-0.4-0.2-1-0.7-1-2.2c0-0.7,0.2-1.1,0.7-1.6c0.1-0.1,0.3-0.2,0.7-0.3
			C-442.8,281.2-442.6,281.1-442.2,281.1 M-442.2,279.9c-0.3,0-0.8,0-1.1,0.1c-0.4,0.1-0.8,0.3-1.1,0.6c-0.7,0.7-1,1.5-1,2.3
			c0,1.7,0.6,2.8,1.7,3.2c1.1,0.6,2.8,0.8,5,0.8h0.1c2.2,0,3.9-0.2,5-0.8c1.1-0.6,1.7-1.7,1.7-3.2c0-1-0.3-1.8-1.1-2.3
			c-0.3-0.3-0.8-0.6-1.3-0.7c-0.2,0-0.6-0.1-0.9-0.1c-0.3,0-0.8,0-1.3,0.1c-1,0.1-1.7,0.1-2.1,0.1c-0.6,0-1,0-1.7-0.1
			c-0.7,0-1.2-0.1-1.6-0.1C-442.2,279.9-442.2,279.9-442.2,279.9L-442.2,279.9z"/>
	</g>
	<path class="st0" d="M-442,281.5c0.3,0,0.7,0.2,0.9,0.6c0.2,0.3,0.3,0.8,0.3,1.2c0,0.6-0.1,0.9-0.3,1.2c-0.2,0.3-0.6,0.6-0.9,0.6
		c-0.3,0-0.7-0.2-0.9-0.6c-0.2-0.3-0.3-0.8-0.3-1.2c0-0.6,0.1-0.9,0.3-1.2C-442.7,281.7-442.4,281.5-442,281.5z"/>
</g>
</svg>
