<?xml version="1.0" encoding="utf-8"?>
<!-- Generator: Adobe Illustrator 19.1.0, SVG Export Plug-In . SVG Version: 6.00 Build 0)  -->
<svg version="1.1" id="图层_1" xmlns="http://www.w3.org/2000/svg" xmlns:xlink="http://www.w3.org/1999/xlink" x="0px" y="0px"
	 viewBox="-459 261 40 40" style="enable-background:new -459 261 40 40;" xml:space="preserve">
<g>
	<g>
		<g>
			<g>
				<path class="st0" d="M-430.8,281c0-5.3-4.3-9.6-9.6-9.6c-5.3,0-9.6,4.3-9.6,9.6s4.3,9.6,9.6,9.6c0.5,0,0.8,0.3,0.8,0.8
					s-0.3,0.8-0.8,0.8c-6.2,0-11.2-5-11.2-11.2s5-11.2,11.2-11.2s11.2,5,11.2,11.2C-429.2,281-430.8,281-430.8,281z"/>
			</g>
			<g>
				<path class="st0" d="M-430,281.8c-0.2,0-0.3,0-0.5-0.2l-5-3c-0.3-0.2-0.5-0.6-0.3-1.1c0.2-0.3,0.6-0.5,1.1-0.3l4.3,2.6l2.6-4.3
					c0.2-0.3,0.8-0.5,1.1-0.3c0.3,0.2,0.5,0.6,0.3,1.1l-3,5c-0.2,0.2-0.3,0.3-0.5,0.3C-429.9,281.8-430,281.8-430,281.8z"/>
			</g>
		</g>
	</g>
</g>
</svg>
