<?xml version="1.0" encoding="utf-8"?>
<!-- Generator: Adobe Illustrator 19.1.0, SVG Export Plug-In . SVG Version: 6.00 Build 0)  -->
<svg version="1.1" id="图层_1" xmlns="http://www.w3.org/2000/svg" xmlns:xlink="http://www.w3.org/1999/xlink" x="0px" y="0px"
	 viewBox="-459 261 40 40" style="enable-background:new -459 261 40 40;" xml:space="preserve">
<g>
	<g>
		<g>
			<g>
				<g>
					<path id="download-cloud" d="M-429.2,285.6h-3.4c-0.5,0-0.8-0.3-0.8-0.8s0.3-0.8,0.8-0.8h3.4c0.6,0,1.3-0.3,1.8-0.8s0.6-1.1,0.5-1.9
						c-0.2-0.8-1-1.6-1.9-1.8l-1-0.2c-1.1-0.2-1.8-1.3-1.6-2.2l0.2-1.1c0-0.3,0-0.5,0-0.6c0-1.3-0.5-2.4-1.3-3.2
						c-0.8-0.8-2.1-1.3-3.2-1.3c-1.6,0-3.2,1.1-3.8,2.7l-0.3,0.6c-0.3,0.8-1.1,1.3-2.1,1.1l-0.8-0.2c-1.4-0.2-3,0.8-3.5,2.2
						l-0.2,0.6c-0.3,0.8-0.8,1.3-1.6,1.3l-0.8,0.2c-0.6,0.2-1.3,0.5-1.6,1.1s-0.5,1.3-0.2,1.9c0.3,0.8,1.3,1.4,2.2,1.4h3.2
						c0.5,0,0.8,0.3,0.8,0.8s-0.5,0.8-1,0.8h-3.2c-1.8,0-3.2-1-3.7-2.6c-0.3-1.1-0.3-2.2,0.3-3.2c0.6-1,1.6-1.6,2.7-1.8l0.8-0.2
						c0.2,0,0.3-0.2,0.3-0.3l0.2-0.6c0.6-1.9,2.6-3.4,4.6-3.4c0.2,0,0.3,0,0.5,0l0.8,0.2c0.2,0,0.3,0,0.5-0.2l0.3-0.6
						c1-2.1,3-3.5,5.3-3.7c1.6,0,3.2,0.5,4.5,1.6c1.1,1.1,1.9,2.7,1.9,4.3c0,0.3,0,0.6-0.2,1l-0.2,1.1c0,0.2,0.2,0.5,0.3,0.5l1,0.2
						c1.6,0.3,2.9,1.4,3.2,3c0.2,1.1,0,2.2-0.8,3.2C-426.9,285.1-428.1,285.6-429.2,285.6z"/>
				</g>
				<g>
					<g>
						<path id="download-arrow" d="M-439.1,293L-439.1,293c-0.2,0-0.5-0.2-0.6-0.2l-2.4-2.6c-0.3-0.3-0.3-0.8,0-1.1c0.3-0.3,0.8-0.3,1.1,0
							l1.9,1.9l1.9-1.9c0.3-0.3,0.8-0.3,1.1,0c0.3,0.3,0.3,0.8,0,1.1l-2.4,2.4C-438.8,292.9-438.9,293-439.1,293z"/>
					</g>
					<g>
						<path id="download-arrow" d="M-439.1,293c-0.5,0-0.8-0.3-0.8-0.8v-8c0-0.5,0.3-0.8,0.8-0.8s0.8,0.3,0.8,0.8v8
							C-438.3,292.5-438.8,293-439.1,293z"/>
					</g>
				</g>
			</g>
		</g>
	</g>
</g>
</svg>
