<?xml version="1.0" encoding="utf-8"?>
<!-- Generator: Adobe Illustrator 19.1.0, SVG Export Plug-In . SVG Version: 6.00 Build 0)  -->
<svg version="1.1" id="图层_1" xmlns="http://www.w3.org/2000/svg" xmlns:xlink="http://www.w3.org/1999/xlink" x="0px" y="0px"
	 viewBox="-459 261 40 40" style="enable-background:new -459 261 40 40;" xml:space="preserve">
<g>
	<g>
		<g>
			<g>
				<path class="st0" d="M-430.3,278.3c-0.2,0-0.5,0-0.6-0.2l-5.1-5.1c-0.2-0.2-0.2-0.3-0.2-0.6c0-0.3,0.2-0.5,0.2-0.6l2.1-2.1
					c1.3-1.3,3.4-1.3,4.5,0l1.8,1.8c1.3,1.3,1.3,3.4,0,4.5l-2.1,2.1C-429.9,278.3-430.2,278.3-430.3,278.3z M-434.3,272.3l4,4
					l1.6-1.6c0.6-0.6,0.6-1.6,0-2.2l-1.8-1.8c-0.6-0.6-1.6-0.6-2.2,0L-434.3,272.3z"/>
			</g>
			<g>
				<path class="st0" d="M-450.5,293.3c-0.2,0-0.5-0.2-0.6-0.2c-0.2-0.3-0.2-0.5-0.2-0.8l1-6.1c0-0.2,0.2-0.3,0.2-0.5l14.1-14.1
					c0.3-0.3,0.8-0.3,1.1,0l5.1,5.1c0.2,0.2,0.2,0.3,0.2,0.6c0,0.3-0.2,0.5-0.2,0.6l-14.1,14.1c-0.2,0.2-0.3,0.2-0.5,0.2
					L-450.5,293.3C-450.3,293.3-450.5,293.3-450.5,293.3z M-448.7,286.7l-0.8,4.8l4.8-0.8l13.3-13.3l-4-4L-448.7,286.7z"/>
			</g>
			<g>
				<path class="st0" d="M-443,290.9c-0.2,0-0.5,0-0.6-0.2l-5.1-5.1c-0.3-0.3-0.3-0.8,0-1.1c0.3-0.3,0.8-0.3,1.1,0l5.1,5.1
					c0.3,0.3,0.3,0.8,0,1.1C-442.5,290.7-442.7,290.9-443,290.9z"/>
			</g>
		</g>
	</g>
</g>
</svg>
