<?xml version="1.0" encoding="utf-8"?>
<!-- Generator: Adobe Illustrator 19.1.0, SVG Export Plug-In . SVG Version: 6.00 Build 0)  -->
<svg version="1.1" id="图层_1" xmlns="http://www.w3.org/2000/svg" xmlns:xlink="http://www.w3.org/1999/xlink" x="0px" y="0px"
	 viewBox="-459 261 40 40" style="enable-background:new -459 261 40 40;" xml:space="preserve">
<g>
	<g>
		<g>
			<g>
				<path class="st0" d="M-427.8,278.6h-22.4c-0.5,0-0.8-0.3-0.8-0.8v-3.2c0-1.3,1.1-2.4,2.4-2.4h19.2c1.3,0,2.4,1.1,2.4,2.4v3.2
					C-427,278.1-427.3,278.6-427.8,278.6z M-449.4,277h20.8v-2.4c0-0.5-0.3-0.8-0.8-0.8h-19.2c-0.5,0-0.8,0.3-0.8,0.8V277z"/>
			</g>
			<g>
				<path class="st0" d="M-432.6,294.6h-12.8c-2.2,0-4-1.8-4-4v-12.8c0-0.5,0.3-0.8,0.8-0.8s0.8,0.3,0.8,0.8v12.8
					c0,1.3,1.1,2.4,2.4,2.4h12.8c1.3,0,2.4-1.1,2.4-2.4v-12.8c0-0.5,0.3-0.8,0.8-0.8s0.8,0.3,0.8,0.8v12.8
					C-428.6,292.8-430.3,294.6-432.6,294.6z"/>
			</g>
			<g>
				<path class="st0" d="M-435,273h-1.6v-3.2c0-0.5-0.3-0.8-0.8-0.8h-3.2c-0.5,0-0.8,0.3-0.8,0.8v3.2h-1.6v-3.2
					c0-1.3,1.1-2.4,2.4-2.4h3.2c1.3,0,2.4,1.1,2.4,2.4L-435,273L-435,273z"/>
			</g>
			<g>
				<path class="st0" d="M-443.8,289.8c-0.5,0-0.8-0.3-0.8-0.8v-6.4c0-0.5,0.3-0.8,0.8-0.8s0.8,0.3,0.8,0.8v6.4
					C-443,289.5-443.3,289.8-443.8,289.8z"/>
			</g>
			<g>
				<path class="st0" d="M-439,289.8c-0.5,0-0.8-0.3-0.8-0.8v-6.4c0-0.5,0.3-0.8,0.8-0.8s0.8,0.3,0.8,0.8v6.4
					C-438.2,289.5-438.5,289.8-439,289.8z"/>
			</g>
			<g>
				<path class="st0" d="M-434.2,289.8c-0.5,0-0.8-0.3-0.8-0.8v-6.4c0-0.5,0.3-0.8,0.8-0.8s0.8,0.3,0.8,0.8v6.4
					C-433.4,289.5-433.7,289.8-434.2,289.8z"/>
			</g>
		</g>
	</g>
</g>
</svg>
