<?xml version="1.0" encoding="utf-8"?>
<!-- Generator: Adobe Illustrator 19.1.0, SVG Export Plug-In . SVG Version: 6.00 Build 0)  -->
<svg version="1.1" id="图层_1" xmlns="http://www.w3.org/2000/svg" xmlns:xlink="http://www.w3.org/1999/xlink" x="0px" y="0px"
	 viewBox="-459 261 40 40" style="enable-background:new -459 261 40 40;" xml:space="preserve">
<g>
	<g>
		<g>
			<g>
				<path class="st0" d="M-448.7,281c0-6.2,5-11.2,11.2-11.2s11.2,5,11.2,11.2s-5,11.2-11.2,11.2c-0.5,0-0.8-0.3-0.8-0.8
					s0.3-0.8,0.8-0.8c5.3,0,9.6-4.3,9.6-9.6s-4.3-9.6-9.6-9.6c-5.3,0-9.6,4.3-9.6,9.6C-447.1,281-448.7,281-448.7,281z"/>
			</g>
			<g>
				<path class="st0" d="M-447.9,281.8h-0.2c-0.2,0-0.3-0.2-0.5-0.3l-3-5c-0.2-0.3-0.2-0.8,0.3-1.1c0.3-0.2,0.8-0.2,1.1,0.3l2.6,4.3
					l4.3-2.6c0.3-0.2,0.8-0.2,1.1,0.3c0.2,0.3,0.2,0.8-0.3,1.1l-5,3C-447.6,281.8-447.7,281.8-447.9,281.8z"/>
			</g>
		</g>
	</g>
</g>
</svg>
