<?xml version="1.0" encoding="utf-8"?>
<!-- Generator: Adobe Illustrator 19.1.0, SVG Export Plug-In . SVG Version: 6.00 Build 0)  -->
<svg version="1.1" id="图层_1" xmlns="http://www.w3.org/2000/svg" xmlns:xlink="http://www.w3.org/1999/xlink" x="0px" y="0px"
	 viewBox="-459 261 40 40" style="enable-background:new -459 261 40 40;" xml:space="preserve">
<path class="st0" d="M-422.4,276.6l-8.6-8.6c-0.5-0.3-1.2-0.6-1.8-0.6h-5.8c-2.2,0-4,1.8-4,4v5.9c0,0.5,0.3,0.8,0.8,0.8
	s0.8-0.3,0.8-0.8v-5.9c0-1.3,1.1-2.4,2.4-2.4h5.6v5.6c0,2.2,1.8,4,4,4h5.6v12c0,1.3-1.1,2.4-2.4,2.4h-12.8c-1.3,0-2.4-1.1-2.4-2.3
	c0-0.5-0.3-0.8-0.8-0.8s-0.8,0.3-0.8,0.8c0,2.2,1.8,3.9,4,3.9h12.8c2.3,0,4-1.8,4-4v-12.2C-421.8,277.7-421.9,277.1-422.4,276.6z
	 M-429,277c-1.3,0-2.4-1.1-2.4-2.4V270l7,7H-429z"/>
<path class="st0" d="M-453.4,287c0,0.5-0.1,0.8-0.4,1s-0.6,0.4-1,0.4c-0.4,0-0.7-0.1-1-0.4s-0.4-0.6-0.4-1c0-0.4,0.1-0.8,0.4-1
	s0.6-0.4,1-0.4c0.4,0,0.7,0.1,1,0.4S-453.4,286.6-453.4,287z"/>
<path class="st0" d="M-449.7,286.6c0.4,0,0.7,0,0.9-0.1c0.2-0.1,0.3-0.2,0.3-0.5c0-0.2-0.1-0.3-0.3-0.5c-0.2-0.1-0.6-0.3-1-0.5
	c-0.4-0.1-0.7-0.3-1-0.4c-0.3-0.1-0.5-0.3-0.7-0.5c-0.2-0.2-0.4-0.4-0.5-0.7c-0.1-0.3-0.2-0.6-0.2-1c0-0.7,0.3-1.3,0.8-1.8
	c0.5-0.4,1.3-0.6,2.3-0.6c0.5,0,0.9,0,1.4,0.1c0.4,0.1,0.8,0.2,1,0.3l-0.4,1.7c-0.3-0.1-0.5-0.2-0.8-0.2c-0.3-0.1-0.6-0.1-1-0.1
	c-0.7,0-1,0.2-1,0.6c0,0.1,0,0.2,0,0.2c0,0.1,0.1,0.1,0.2,0.2c0.1,0.1,0.2,0.1,0.4,0.2c0.2,0.1,0.4,0.2,0.6,0.2
	c0.5,0.2,0.9,0.4,1.2,0.5c0.3,0.2,0.6,0.4,0.8,0.6c0.2,0.2,0.3,0.4,0.4,0.7c0.1,0.2,0.1,0.5,0.1,0.9c0,0.8-0.3,1.4-0.9,1.8
	c-0.6,0.4-1.4,0.6-2.5,0.6c-0.7,0-1.3-0.1-1.7-0.2c-0.5-0.1-0.8-0.2-1-0.3l0.4-1.8c0.4,0.1,0.8,0.3,1.2,0.4
	S-450.1,286.6-449.7,286.6z"/>
<path class="st0" d="M-442.5,288.2c-0.5-1-1-2.2-1.6-3.5c-0.5-1.3-1-2.8-1.5-4.4h2.4c0.1,0.4,0.2,0.8,0.4,1.3s0.3,0.9,0.4,1.4
	c0.1,0.5,0.3,0.9,0.4,1.4s0.3,0.8,0.4,1.2c0.1-0.4,0.3-0.8,0.4-1.2s0.3-0.9,0.4-1.4c0.1-0.5,0.3-0.9,0.4-1.4s0.3-0.9,0.4-1.3h2.3
	c-0.5,1.6-1,3-1.5,4.4c-0.5,1.3-1,2.5-1.6,3.5H-442.5z"/>
<path class="st0" d="M-429.8,287.2c0,1.3-0.3,2.2-1,2.9s-1.7,0.9-3,0.9c-0.5,0-1,0-1.4-0.1s-0.9-0.2-1.3-0.3l0.4-1.9
	c0.3,0.1,0.7,0.2,1.1,0.3c0.4,0.1,0.8,0.1,1.3,0.1c0.6,0,1.1-0.1,1.4-0.4c0.3-0.3,0.4-0.6,0.4-1.1v-0.3c-0.2,0.1-0.5,0.2-0.7,0.2
	c-0.3,0.1-0.5,0.1-0.8,0.1c-1.1,0-1.9-0.3-2.5-1s-0.9-1.5-0.9-2.7c0-0.6,0.1-1.1,0.3-1.6c0.2-0.5,0.4-0.9,0.8-1.2
	c0.3-0.3,0.8-0.6,1.3-0.8s1.1-0.3,1.7-0.3c0.3,0,0.5,0,0.8,0c0.3,0,0.6,0.1,0.8,0.1c0.3,0,0.5,0.1,0.8,0.1c0.3,0.1,0.5,0.1,0.7,0.2
	V287.2z M-434.7,284c0,1.3,0.5,1.9,1.5,1.9c0.2,0,0.4,0,0.6-0.1c0.2-0.1,0.4-0.1,0.5-0.2V282c-0.1,0-0.2,0-0.4-0.1s-0.3,0-0.5,0
	c-0.6,0-1,0.2-1.3,0.6C-434.6,282.9-434.7,283.4-434.7,284z"/>
</svg>
