<?xml version="1.0" encoding="utf-8"?>
<!-- Generator: Adobe Illustrator 19.1.0, SVG Export Plug-In . SVG Version: 6.00 Build 0)  -->
<svg version="1.1" id="图层_1" xmlns="http://www.w3.org/2000/svg" xmlns:xlink="http://www.w3.org/1999/xlink" x="0px" y="0px"
	 viewBox="-459 261 40 40" style="enable-background:new -459 261 40 40;" xml:space="preserve">
<g>
	<path class="st0" d="M-429.7,289.4h-3.4h-4.6h-2.6h-0.8h-7.2c-0.5,0-0.8,0.3-0.8,0.8s0.3,0.8,0.8,0.8h7.2h0.8h2.6h4.6h3.4
		c0.5,0,0.8-0.3,0.8-0.8S-429.2,289.4-429.7,289.4z"/>
	<g>
		<g>
			<path class="st0" d="M-439,286.2c-0.2,0-0.5,0-0.6-0.2l-4.8-4.8c-0.3-0.3-0.3-0.8,0-1.1c0.3-0.3,0.8-0.3,1.1,0l4.2,4.2l4.2-4.2
				c0.3-0.3,0.8-0.3,1.1,0s0.3,0.8,0,1.1l-4.8,4.8C-438.5,286.2-438.8,286.2-439,286.2z"/>
		</g>
		<g>
			<path class="st0" d="M-439,285.4c-0.5,0-0.8-0.3-0.8-0.8v-12.8c0-0.5,0.3-0.8,0.8-0.8s0.8,0.3,0.8,0.8v12.8
				C-438.2,285.1-438.5,285.4-439,285.4z"/>
		</g>
	</g>
</g>
</svg>
