<?xml version="1.0" encoding="utf-8"?>
<!-- Generator: Adobe Illustrator 19.1.0, SVG Export Plug-In . SVG Version: 6.00 Build 0)  -->
<svg class="size-active" version="1.1" id="图层_1" xmlns="http://www.w3.org/2000/svg" xmlns:xlink="http://www.w3.org/1999/xlink" x="0px" y="0px"
	 viewBox="-459 261 40 40" style="enable-background:new -459 261 40 40;" xml:space="preserve">
<g>
	<g>
		<path d="M-439,286.8c-3.2,0-5.8-2.6-5.8-5.8c0-3.2,2.6-5.8,5.8-5.8c3.2,0,5.8,2.6,5.8,5.8C-433.2,284.2-435.8,286.8-439,286.8z
			 M-439,276.8c-2.3,0-4.2,1.9-4.2,4.2c0,2.3,1.9,4.2,4.2,4.2c2.3,0,4.2-1.9,4.2-4.2C-434.8,278.7-436.7,276.8-439,276.8z"/>
	</g>
	<g>
		<path class="line" d="M-443,280.6c-0.1,0-0.3,0-0.4-0.1c-0.2-0.2-0.2-0.5,0-0.7l3.3-3.3c0.2-0.2,0.5-0.2,0.7,0s0.2,0.5,0,0.7l-3.3,3.3
			C-442.7,280.6-442.9,280.6-443,280.6z"/>
	</g>
	<g>
		<path class="line" d="M-443,281.9c-0.1,0-0.3-0.1-0.4-0.2c-0.2-0.2-0.2-0.5,0-0.7l4.5-4.4c0.2-0.2,0.5-0.2,0.7,0c0.2,0.2,0.2,0.5,0,0.7
			l-4.5,4.4C-442.7,281.9-442.9,281.9-443,281.9z"/>
	</g>
	<g>
		<path class="line" d="M-442.7,283.1c-0.1,0-0.3,0-0.4-0.1c-0.2-0.2-0.2-0.5,0-0.7l5.1-5.1c0.2-0.2,0.5-0.2,0.7,0s0.2,0.5,0,0.7l-5.1,5.1
			C-442.4,283.1-442.6,283.1-442.7,283.1z"/>
	</g>
	<g>
		<path class="line" d="M-442,283.9c-0.1,0-0.3,0-0.4-0.1c-0.2-0.2-0.2-0.5,0-0.7l5.4-5.4c0.2-0.2,0.5-0.2,0.7,0s0.2,0.5,0,0.7l-5.4,5.4
			C-441.7,283.9-441.9,283.9-442,283.9z"/>
	</g>
	<g>
		<path class="line" d="M-441.2,284.8c-0.1,0-0.3,0-0.4-0.1c-0.2-0.2-0.2-0.5,0-0.7l5.7-5.7c0.2-0.2,0.5-0.2,0.7,0s0.2,0.5,0,0.7l-5.7,5.7
			C-440.9,284.8-441.1,284.8-441.2,284.8z"/>
	</g>
	<g>
		<path class="line" d="M-440.2,285.3c-0.1,0-0.3,0-0.4-0.2c-0.2-0.2-0.2-0.5,0-0.7l5-4.9c0.2-0.2,0.5-0.2,0.7,0c0.2,0.2,0.2,0.5,0,0.7l-5,4.9
			C-439.9,285.3-440.1,285.3-440.2,285.3z"/>
	</g>
	<g>
		<path class="line" d="M-438.7,285.5c-0.1,0-0.3,0-0.4-0.1c-0.2-0.2-0.2-0.5,0-0.7l3.6-3.6c0.2-0.2,0.5-0.2,0.7,0s0.2,0.5,0,0.7l-3.6,3.6
			C-438.4,285.5-438.6,285.5-438.7,285.5z"/>
	</g>
	<g>
		<path class="line" d="M-436.9,285c-0.1,0-0.2,0-0.3-0.1c-0.2-0.2-0.2-0.5,0-0.7l1.3-1.4c0.2-0.2,0.5-0.2,0.7,0c0.2,0.2,0.2,0.5,0,0.7l-1.3,1.4
			C-436.6,284.9-436.8,285-436.9,285z"/>
	</g>
</g>
</svg>
