<?xml version="1.0" encoding="utf-8"?>
<!-- Generator: Adobe Illustrator 19.1.0, SVG Export Plug-In . SVG Version: 6.00 Build 0)  -->
<svg version="1.1" id="图层_1" xmlns="http://www.w3.org/2000/svg" xmlns:xlink="http://www.w3.org/1999/xlink" x="0px" y="0px"
	 viewBox="-459 261 40 40" style="enable-background:new -459 261 40 40;" xml:space="preserve">
<g>
	<path class="st0" d="M-443.8,293.2C-443.8,293.2-443.9,293.2-443.8,293.2c-0.7,0-1.3-0.3-1.8-0.8l-5.1-5.2
		c-0.5-0.5-0.7-1.1-0.7-1.8c0-0.7,0.3-1.3,0.8-1.8l14.6-14.2c0.5-0.5,1.2-0.7,1.8-0.7c0.7,0,1.3,0.3,1.8,0.8l5.1,5.2
		c1,1,1,2.6,0,3.6l0,0l-14.6,14.2C-442.5,293-443.2,293.2-443.8,293.2z M-434.4,270.5c-0.2,0-0.4,0.1-0.5,0.2l-14.6,14.2
		c-0.1,0.1-0.2,0.3-0.2,0.5s0.1,0.4,0.2,0.5l5.1,5.2c0.1,0.1,0.3,0.2,0.5,0.2s0.4-0.1,0.5-0.2l14.6-14.2c0.3-0.3,0.3-0.8,0-1
		l-5.1-5.2C-434,270.6-434.2,270.5-434.4,270.5L-434.4,270.5z"/>
</g>
<g>
	
		<rect x="-444.2" y="280.1" transform="matrix(-0.6987 -0.7154 0.7154 -0.6987 -946.7621 163.2729)" class="st0" width="10.5" height="1.8"/>
</g>
</svg>
