<?xml version="1.0" encoding="utf-8"?>
<!-- Generator: Adobe Illustrator 19.1.0, SVG Export Plug-In . SVG Version: 6.00 Build 0)  -->
<svg class="size-active" version="1.1" id="图层_1" xmlns="http://www.w3.org/2000/svg" xmlns:xlink="http://www.w3.org/1999/xlink" x="0px" y="0px"
	 viewBox="-459 261 40 40" style="enable-background:new -459 261 40 40;" xml:space="preserve">
<g>
	<g>
		<path d="M-439,293.2c-6.8,0-12.2-5.5-12.2-12.2s5.5-12.2,12.2-12.2s12.2,5.5,12.2,12.2S-432.2,293.2-439,293.2z M-439,270.2
			c-5.9,0-10.8,4.8-10.8,10.8s4.8,10.8,10.8,10.8s10.8-4.8,10.8-10.8S-433.1,270.2-439,270.2z"/>
	</g>
	<g>
		<path class="line"  d="M-448.2,279.5c-0.2,0-0.4-0.1-0.5-0.2c-0.3-0.3-0.3-0.8,0-1.1l7.5-7.5c0.3-0.3,0.8-0.3,1.1,0s0.3,0.8,0,1.1l-7.5,7.5
			C-447.8,279.5-448,279.5-448.2,279.5z"/>
	</g>
	<g>
		<path class="line"  d="M-448.2,282.6c-0.2,0-0.4-0.1-0.5-0.2c-0.3-0.3-0.3-0.8,0-1.1l10.3-10.2c0.3-0.3,0.8-0.3,1.1,0c0.3,0.3,0.3,0.8,0,1.1
			l-10.3,10.2C-447.8,282.6-448,282.6-448.2,282.6z"/>
	</g>
	<g>
		<path class="line"  d="M-447.6,285.5c-0.2,0-0.4-0.1-0.5-0.2c-0.3-0.3-0.3-0.8,0-1.1l11.8-11.8c0.3-0.3,0.8-0.3,1.1,0s0.3,0.8,0,1.1l-11.8,11.8
			C-447.2,285.4-447.4,285.5-447.6,285.5z"/>
	</g>
	<g>
		<path class="line"  d="M-445.9,287.2c-0.2,0-0.4-0.1-0.5-0.2c-0.3-0.3-0.3-0.8,0-1.1l12.5-12.5c0.3-0.3,0.8-0.3,1.1,0s0.3,0.8,0,1.1l-12.5,12.5
			C-445.5,287.2-445.7,287.2-445.9,287.2z"/>
	</g>
	<g>
		<path class="line"  d="M-444.1,289.5c-0.2,0-0.4-0.1-0.5-0.2c-0.3-0.3-0.3-0.8,0-1.1l13.2-13.3c0.3-0.3,0.8-0.3,1.1,0c0.3,0.3,0.3,0.8,0,1.1
			l-13.2,13.3C-443.7,289.4-443.9,289.5-444.1,289.5z"/>
	</g>
	<g>
		<path class="line"  d="M-441.7,290.5c-0.2,0-0.4-0.1-0.5-0.2c-0.3-0.3-0.3-0.8,0-1.1l11.3-11.3c0.3-0.3,0.8-0.3,1.1,0s0.3,0.8,0,1.1l-11.3,11.3
			C-441.3,290.4-441.5,290.5-441.7,290.5z"/>
	</g>
	<g>
		<path class="line"  d="M-438.4,290.8c-0.2,0-0.4-0.1-0.5-0.2c-0.3-0.3-0.3-0.8,0-1.1l8.4-8.3c0.3-0.3,0.8-0.3,1.1,0c0.3,0.3,0.3,0.8,0,1.1
			l-8.4,8.3C-438,290.8-438.2,290.8-438.4,290.8z"/>
	</g>
	<g>
		<path class="line"  d="M-434.2,289.7c-0.2,0-0.4-0.1-0.5-0.2c-0.3-0.3-0.3-0.8,0-1.1l3.1-3.1c0.3-0.3,0.8-0.3,1.1,0s0.3,0.8,0,1.1l-3.1,3.1
			C-433.8,289.6-434,289.7-434.2,289.7z"/>
	</g>
</g>
</svg>
